<?xml version="1.0" encoding="utf-8"?>
<!-- Generator: Adobe Illustrator 15.0.2, SVG Export Plug-In . SVG Version: 6.00 Build 0)  -->
<!DOCTYPE svg PUBLIC "-//W3C//DTD SVG 1.1//EN" "http://www.w3.org/Graphics/SVG/1.1/DTD/svg11.dtd">
<svg version="1.1" id="Layer_1" xmlns="http://www.w3.org/2000/svg" xmlns:xlink="http://www.w3.org/1999/xlink" x="0px" y="0px"
	 width="500px" height="500px" viewBox="0 0 500 500" enable-background="new 0 0 500 500" xml:space="preserve">
<g transform="scale(.9)">
	<g transform="translate(37.5, 37.5)">
		<polygon fill="#ECF0F1" stroke="#E64C3C" stroke-width="17.5" points="197.011,20 296.892,20 397.829,74.719 453.08,170.875 
			453.08,280.312 397.829,377.001 296.892,445 197.011,445 96.074,377.001 40.824,280.312 40.824,170.875 96.074,74.719 		"/>
	</g>
	<g transform="translate(75, 75)">
		<polygon fill="#ECF0F1" stroke="#E64C3C" stroke-width="17.5" points="168.324,20 250.58,20 333.705,65.063 379.204,144.25 
			379.204,234.375 333.705,314 250.58,370 168.324,370 85.199,314 39.699,234.375 39.699,144.25 85.199,65.063 		"/>
	</g>
	<g transform="translate(107.5, 107.5)">
		<polygon fill="#FFFFFF" stroke="#E64C3C" stroke-width="10" points="143.462,20 210.442,20 278.13,56.694 315.179,121.175 
			315.179,194.562 278.13,259.401 210.442,305 143.462,305 75.774,259.401 38.725,194.562 38.725,121.175 75.774,56.694 		"/>
	</g>
	<g transform="translate(102.5, 102.5)">
		<g transform="translate(118.73750000000001, 5.899999999999977)">
			<rect x="34.449" y="45" fill="#E64C3C" width="60.005" height="7.5"/>
			<rect x="34.449" y="40" fill="#ECF0F1" width="60.005" height="7.5"/>
		</g>
		<g transform="translate(194.70000000000002, 8.850000000000023)">
			
				<rect x="17.446" y="55.719" transform="matrix(-0.883 -0.4695 0.4695 -0.883 61.4191 134.251)" fill="#E64C3C" width="59.999" height="7.5"/>
			
				<rect x="19.793" y="51.304" transform="matrix(-0.8829 -0.4695 0.4695 -0.8829 67.9097 127.0406)" fill="#ECF0F1" width="60" height="7.5"/>
		</g>
		<g transform="translate(259.6, 50.14999999999998)">
			
				<rect x="-5.444" y="56.606" transform="matrix(-0.5 -0.866 0.866 -0.5 -15.4353 111.8003)" fill="#E64C3C" width="59.999" height="7.5"/>
			
				<rect x="-1.113" y="54.106" transform="matrix(-0.5 -0.866 0.866 -0.5 -6.7744 111.8006)" fill="#ECF0F1" width="59.999" height="7.5"/>
		</g>
		<g transform="translate(292.64000000000004, 118)">
			<rect x="1.954" y="20" fill="#E64C3C" width="7.5" height="60"/>
			<rect x="6.954" y="20" fill="#ECF0F1" width="7.5" height="60"/>
		</g>
		<g transform="translate(287.625, 194.7)">
			
				<rect x="-35.444" y="27.856" transform="matrix(0.5 -0.866 0.866 0.5 -30.0936 11.0887)" fill="#E64C3C" width="60" height="7.5"/>
			
				<rect x="-31.114" y="30.356" transform="matrix(0.5 -0.866 0.866 0.5 -30.094 16.0881)" fill="#ECF0F1" width="60" height="7.5"/>
		</g>
		<g transform="translate(244.85000000000002, 259.6)">
			
				<rect x="-35.901" y="6.352" transform="matrix(0.866 -0.5 0.5 0.866 -5.842 -1.5974)" fill="#E64C3C" width="59.999" height="7.5"/>
			
				<rect x="-33.401" y="10.682" transform="matrix(0.866 -0.5 0.5 0.866 -7.6718 0.2327)" fill="#ECF0F1" width="59.999" height="7.5"/>
		</g>
		<g transform="translate(177, 295)">
			<rect x="-25.551" y="-12.5" fill="#E64C3C" width="60.005" height="7.5"/>
			<rect x="-25.551" y="-7.5" fill="#ECF0F1" width="60.005" height="7.5"/>
		</g>
		<g transform="translate(100.30000000000001, 290.575)">
			
				<rect x="-7.157" y="-23.648" transform="matrix(0.866 0.5 -0.5 0.866 -6.8887 -14.0874)" fill="#E64C3C" width="60" height="7.5"/>
			
				<rect x="-9.657" y="-19.318" transform="matrix(0.866 0.5 -0.5 0.866 -5.0584 -12.2572)" fill="#ECF0F1" width="60" height="7.5"/>
		</g>
		<g transform="translate(36.875, 247.8)">
			<rect x="14.347" y="-24.106" transform="matrix(0.5 0.866 -0.866 0.5 4.5454 -48.584)" fill="#E64C3C" width="60" height="7.5"/>
			
				<rect x="10.017" y="-21.606" transform="matrix(0.5 0.866 -0.866 0.5 4.5452 -43.5837)" fill="#ECF0F1" width="60" height="7.5"/>
		</g>
		<g transform="translate(1.7700000000000042, 179.95)">
			<rect x="59.449" y="-40" fill="#E64C3C" width="7.5" height="60"/>
			<rect x="54.449" y="-40" fill="#ECF0F1" width="7.5" height="60"/>
		</g>
		<g transform="translate(5.9, 103.25)">
			
				<rect x="44.347" y="4.644" transform="matrix(-0.5 0.866 -0.866 -0.5 118.7906 -51.795)" fill="#E64C3C" width="59.999" height="7.5"/>
			
				<rect x="40.018" y="2.144" transform="matrix(-0.5 0.866 -0.866 -0.5 110.1314 -51.7956)" fill="#ECF0F1" width="59.999" height="7.5"/>
		</g>
		<g transform="translate(50.150000000000006, 40.119999999999976)">
			
				<rect x="44.805" y="26.148" transform="matrix(-0.866 0.5 -0.5 -0.866 154.5376 18.3883)" fill="#E64C3C" width="60" height="7.5"/>
			
				<rect x="42.305" y="21.818" transform="matrix(-0.866 0.5 -0.5 -0.866 147.7073 11.5575)" fill="#ECF0F1" width="60" height="7.5"/>
		</g>
	</g>
	<circle fill="none" stroke="#2C3E50" stroke-width="5" cx="284.449" cy="270" r="105"/>
	<path fill="#ECF0F1" stroke="#7F8C8D" d="M284.449,175c52.472,0,95.005,42.534,95.005,95c0,52.467-42.534,95-95.005,95
		c-52.467,0-94.999-42.533-94.999-95C189.45,217.533,231.982,175,284.449,175z"/>
	<circle fill="#ECF0F1" stroke="#7F8C8D" cx="284.449" cy="270" r="91"/>
	<path fill="#ECF0F1" stroke="#7F8C8D" d="M284.449,183c48.053,0,87.005,38.952,87.005,87c0,48.049-38.952,87.001-87.005,87.001
		c-48.048,0-86.999-38.952-86.999-87.001C197.45,221.952,236.401,183,284.449,183z"/>
	<path fill="#FFFFFF" stroke="#7F8C8D" d="M284.449,187c45.845,0,83.006,37.16,83.006,83s-37.16,83-83.006,83
		c-45.839,0-83-37.16-83-83S238.61,187,284.449,187z"/>
	<circle fill="#FFFFFF" stroke="#2C3E50" stroke-width="5" cx="284.449" cy="270" r="50"/>
	<path fill="#FFFFFF" stroke="#F7CD00" stroke-width="35" d="M284.449,215c30.381,0,55.005,24.625,55.005,55s-24.625,55-55.005,55
		c-30.375,0-54.999-24.625-54.999-55S254.074,215,284.449,215z"/>
	<path fill="#FFFFFF" stroke="#14A085" stroke-width="15" d="M284.449,240c16.569,0,30.005,13.432,30.005,30
		c0,16.569-13.436,30-30.005,30c-16.568,0-29.999-13.431-29.999-30C254.45,253.432,267.881,240,284.449,240z"/>
	<circle fill="#FFFFFF" stroke="#95A5A5" stroke-width="3" cx="284.449" cy="270" r="5"/>
	<path fill="none" stroke="#F0C419" stroke-width="2" stroke-linecap="round" stroke-dasharray="118.9869,118.9869" d="M284.449,270
		c0,0,0,0,1.806-13.333c1.806-13.333,5.417-40,16.25-52.5c10.839-12.5,28.894-10.833,37.922-10s9.028,0.833,9.028,0.833"/>
	<path fill="none" stroke="#F0C419" stroke-width="2" stroke-linecap="round" stroke-dasharray="240.2083,240.2083" d="M284.449,270
		c0,0,0,0-4.167-23.75c-4.166-23.75-12.499-71.25-37.499-94.167c-25-22.917-66.667-21.25-87.5-20.417
		C134.45,132.5,134.45,132.5,134.45,132.5"/>
	<path fill="none" stroke="#F0C419" stroke-width="2" stroke-linecap="round" stroke-dasharray="99.1948,99.1948" d="M284.449,270
		c0,0,0,0,2.569,3.333c2.569,3.333,7.708,10,23.129,14.167c15.418,4.167,41.112,5.833,53.959,6.667
		C376.954,295,376.954,295,376.954,295"/>
	<path fill="none" stroke="#F0C419" stroke-width="2" stroke-linecap="round" stroke-dasharray="158.1408,158.1408" d="M284.449,270
		c0,0,0,0-4.167-5c-4.166-5-12.499-15-37.499-19.167c-25-4.167-66.667-2.5-87.5-1.667C134.45,245,134.45,245,134.45,245"/>
	<path fill="none" stroke="#F0C419" stroke-width="2" stroke-linecap="round" stroke-dasharray="115.4616,115.4616" d="M284.449,270
		c0,0,0,0-1.875,11.667c-1.875,11.667-5.624,35-16.874,47.5s-30,14.167-39.375,15C216.95,345,216.95,345,216.95,345"/>
	<path fill="none" stroke="#F0C419" stroke-width="2" stroke-linecap="round" stroke-dasharray="234.672,234.672" d="M284.449,270
		c0,0,0,0,4.167,22.083c4.167,22.083,12.5,66.25,37.505,89.167c25,22.917,66.667,24.583,87.5,25.417
		c20.833,0.833,20.833,0.833,20.833,0.833"/>
	<path fill="none" stroke="#F0C419" stroke-width="2" stroke-linecap="round" stroke-dasharray="234.672,234.672" d="M284.449,270
		c0,0,0,0-4.167,22.083c-4.166,22.083-12.499,66.25-37.499,89.167s-66.667,24.583-87.5,25.417
		C134.45,407.5,134.45,407.5,134.45,407.5"/>
	<path fill="none" stroke="#F0C419" stroke-width="2" stroke-linecap="round" stroke-dasharray="275.9883,275.9883" d="M284.449,270
		c0,0,0,0-4.861,26.25c-4.861,26.25-14.583,78.75-43.749,105.833c-29.167,27.083-77.778,28.75-102.083,29.583
		C109.45,432.5,109.45,432.5,109.45,432.5"/>
	<path fill="none" stroke="#F0C419" stroke-width="2" stroke-linecap="round" stroke-dasharray="194.1738,194.1738" d="M284.449,270
		c0,0,0,0,4.167,13.75c4.167,13.75,12.5,41.25,37.505,55.833c25,14.583,66.667,16.25,87.5,17.083
		c20.833,0.833,20.833,0.833,20.833,0.833"/>
	<path fill="none" stroke="#F0C419" stroke-width="2" stroke-linecap="round" stroke-dasharray="113.7136,113.7136" d="M284.449,270
		c0,0,0,0,2.778,5.417c2.778,5.417,8.333,16.25,25.005,22.5c16.667,6.25,44.444,7.917,58.333,8.75
		c13.889,0.833,13.889,0.833,13.889,0.833"/>
	<path fill="none" stroke="#F0C419" stroke-width="2" stroke-linecap="round" stroke-dasharray="330.3085,330.3085" d="M284.449,270
		c0,0,0,0,4.861,36.667s14.584,110,43.755,147.5c29.167,37.5,77.778,39.167,102.083,40C459.454,495,459.454,495,459.454,495"/>
	<path fill="none" stroke="#F0C419" stroke-width="2" stroke-linecap="round" stroke-dasharray="90.1989,90.1989" d="M284.449,270
		c0,0,0,0,1.736,7.5s5.208,22.5,15.625,30.833c10.422,8.333,27.783,10,36.464,10.833c8.681,0.833,8.681,0.833,8.681,0.833"/>
	<path fill="none" stroke="#F0C419" stroke-width="2" stroke-linecap="round" stroke-dasharray="71.2627,71.2627" d="M284.449,270
		c0,0,0,0-1.736,3.333c-1.736,3.333-5.208,10-15.624,14.167c-10.417,4.167-27.778,5.833-36.458,6.667
		C221.95,295,221.95,295,221.95,295"/>
	<path fill="none" stroke="#F0C419" stroke-width="2" stroke-linecap="round" stroke-dasharray="200.9817,200.9817" d="M284.449,270
		c0,0,0,0,2.778-23.75c2.778-23.75,8.333-71.25,25.005-94.167c16.667-22.917,44.444-21.25,58.333-20.417
		c13.889,0.833,13.889,0.833,13.889,0.833"/>
</g>
</svg>
